:SAMPLES-PER-SECOND 30
:FULLY-SPECIFIED
:DEGREES
26
root  9.573 40.0939 0.681638 178.457 -86.8368 178.437
RightUpLeg  2.04935 -7.34586 -3.00924
RightLeg  2.26438 3.1979 0.0329421
RightFoot  -2.10403 -0.104622 1.19852
RightToes  2.91037e-010 0 -3.6325e-017
Spine  8.06101 0.010347 2.49042
Spine1  -1.41741 0.290896 -0.819453
HEad  -7.15184 -3.42753 -3.35874
LeftShoulder1  0.19191 1.78466 -3.07285
LeftArm  -20.7543 3.65697 -13.1065
LeftForeArm  -0.839592 1.33102 2.33352
LeftHand  -0.0425962 3.01425 1.32641
RightShoulder  0.0573373 -2.90098 1.19997
RightArm  -7.71213 -4.47101 8.92901
RightForeArm  -5.95256 1.17838 -2.42734
RightHand  -0.315309 5.43188 -3.69332
LeftUpLeg  1.77221 8.00371 5.7878
LeftLeg  2.94676 -2.0068 0.205181
LeftFoot  -1.76473 0.21324 -2.3675
LeftToes  -7.53974e-010 3.3384e-011 -1.25048e-011
27
root  9.55851 40.0943 0.682901 178.988 -86.836 177.916
RightUpLeg  2.01295 -7.37252 -3.04535
RightLeg  2.36218 3.23206 0.0305064
RightFoot  -2.1404 -0.105498 1.22573
RightToes  2.91037e-010 0 -3.6325e-017
Spine  8.00604 0.0219281 2.4949
Spine1  -1.39167 0.303759 -0.815264
HEad  -7.05037 -3.61259 -3.36855
LeftShoulder1  0.202535 1.66328 -2.89334
LeftArm  -20.8598 3.73555 -13.3015
LeftForeArm  -0.85814 1.35755 2.40197
LeftHand  -0.044401 3.46086 1.58649
RightShoulder  0.0567969 -2.91494 1.18672
RightArm  -7.62492 -4.52392 8.87825
RightForeArm  -5.89855 1.23001 -2.39844
RightHand  -0.306566 5.28943 -3.63985
LeftUpLeg  1.79057 7.93087 5.71764
LeftLeg  2.92215 -1.92944 0.259707
LeftFoot  -1.78285 0.216667 -2.4208
LeftToes  -7.53974e-010 3.3384e-011 -1.25048e-011
28
root  9.54951 40.0947 0.68381 179.227 -86.7646 177.696
RightUpLeg  1.9727 -7.3625 -3.04079
RightLeg  2.40221 3.271 0.0275322
RightFoot  -2.14078 -0.100576 1.16269
RightToes  2.91037e-010 0 -3.6325e-017
Spine  7.9783 0.0661034 2.42224
Spine1  -1.38109 0.322503 -0.675689
HEad  -7.07199 -3.55968 -3.38087
LeftShoulder1  0.204277 1.66897 -3.00468
LeftArm  -20.7594 3.69326 -13.1666
LeftForeArm  -0.810597 1.34363 2.33993
LeftHand  -0.0426365 3.07051 1.34831
RightShoulder  0.0570713 -2.89522 1.11503
RightArm  -7.74016 -4.55499 8.9021
RightForeArm  -5.85657 1.24316 -2.44426
RightHand  -0.302656 5.35494 -3.57866
LeftUpLeg  1.82219 7.9453 5.72049
LeftLeg  2.87398 -1.86443 0.240948
LeftFoot  -1.76456 0.218076 -2.44271
LeftToes  -7.53974e-010 3.3384e-011 -1.25048e-011
29
root  9.54053 40.0952 0.684002 179.567 -86.7609 177.308
RightUpLeg  2.07279 -7.38636 -3.08429
RightLeg  2.34428 3.32613 0.0212327
RightFoot  -2.17602 -0.103907 1.22727
RightToes  2.91037e-010 0 -3.6325e-017
Spine  8.11526 0.0428876 2.3914
Spine1  -1.51496 0.293031 -0.646009
HEad  -7.21289 -3.31579 -3.18338
LeftShoulder1  0.208298 1.69228 -2.98333
LeftArm  -20.6892 3.80125 -13.1564
LeftForeArm  -0.903575 1.16808 2.28048
LeftHand  -0.0421294 3.25928 1.38127
RightShoulder  0.0572066 -2.89288 1.16014
RightArm  -7.64383 -4.42725 8.82642
RightForeArm  -5.77062 1.19 -2.40498
RightHand  -0.288234 5.18898 -3.46866
LeftUpLeg  1.9013 7.95243 5.70991
LeftLeg  2.84613 -1.87998 0.233126
LeftFoot  -1.74438 0.215111 -2.3966
LeftToes  -7.53974e-010 3.3384e-011 -1.25048e-011
30
root  9.52669 40.0956 0.682339 179.337 -86.7165 177.549
RightUpLeg  2.09857 -7.38 -3.06687
RightLeg  2.30611 3.3286 0.018859
RightFoot  -2.18686 -0.0979717 1.14749
RightToes  2.91037e-010 0 -3.6325e-017
Spine  8.00242 0.0308959 2.39198
Spine1  -1.3757 0.267086 -0.581318
HEad  -7.27196 -3.17693 -3.14699
LeftShoulder1  0.212479 1.75465 -3.1133
LeftArm  -20.5729 3.77061 -13.0168
LeftForeArm  -1.11133 1.14092 2.1958
LeftHand  -0.0398189 3.60653 1.38803
RightShoulder  0.0571789 -2.8516 1.10423
RightArm  -7.30623 -4.29143 8.80201
RightForeArm  -5.8985 1.12312 -2.26747
RightHand  -0.29517 4.93771 -3.61485
LeftUpLeg  1.90586 7.95545 5.71989
LeftLeg  2.86857 -1.82629 0.249954
LeftFoot  -1.77752 0.214316 -2.38423
LeftToes  -7.53974e-010 3.3384e-011 -1.25048e-011
31
root  9.51588 40.0961 0.677544 179.013 -86.6282 177.875
RightUpLeg  2.10876 -7.34839 -3.03557
RightLeg  2.29824 3.39543 0.00543729
RightFoot  -2.21201 -0.102155 1.22401
RightToes  2.91037e-010 0 -3.6325e-017
Spine  7.92423 0.030639 2.52179
Spine1  -1.27182 0.298729 -0.743352
HEad  -7.26143 -2.88492 -3.06738
LeftShoulder1  0.214141 1.63915 -2.96144
LeftArm  -20.6107 3.85634 -13.1005
LeftForeArm  -1.4237 1.31218 2.25414
LeftHand  -0.0476138 3.54659 1.92383
RightShoulder  0.0571984 -2.78609 1.14823
RightArm  -7.11083 -4.12586 8.80734
RightForeArm  -6.17342 0.775307 -2.21279
RightHand  -0.30078 4.9555 -3.67292
LeftUpLeg  1.96252 8.01394 5.77995
LeftLeg  2.8389 -1.80755 0.209242
LeftFoot  -1.79509 0.215734 -2.40628
LeftToes  -7.53974e-010 3.3384e-011 -1.25048e-011
32
root  9.50688 40.0965 0.67392 179.199 -86.688 177.643
RightUpLeg  2.20471 -7.36504 -3.05659
RightLeg  2.24528 3.34966 0.00465411
RightFoot  -2.20782 -0.103722 1.2591
RightToes  2.91037e-010 0 -3.6325e-017
Spine  8.04359 -0.015619 2.60338
Spine1  -1.40068 0.278804 -0.872613
HEad  -7.18317 -2.81581 -3.03585
LeftShoulder1  0.209387 1.5841 -2.80514
LeftArm  -20.5759 3.92988 -13.2309
LeftForeArm  -1.32199 1.26045 2.24887
LeftHand  -0.0471548 3.07726 1.45258
RightShoulder  0.0572354 -2.77159 1.07933
RightArm  -7.08635 -4.15993 8.95061
RightForeArm  -6.0663 0.610647 -2.22906
RightHand  -0.297645 4.93612 -3.64343
LeftUpLeg  2.01011 7.99672 5.76776
LeftLeg  2.85072 -1.86046 0.2275
LeftFoot  -1.80292 0.217365 -2.43166
LeftToes  -7.53974e-010 3.3384e-011 -1.25048e-011
33
root  9.48763 40.0969 0.672832 179.425 -86.6404 177.415
RightUpLeg  2.20757 -7.37831 -3.05964
RightLeg  2.29037 3.3498 -0.00364816
RightFoot  -2.23269 -0.096849 1.16225
RightToes  2.91037e-010 0 -3.6325e-017
Spine  7.94153 -0.0134483 2.76435
Spine1  -1.28571 0.321627 -1.06502
HEad  -7.20484 -2.87237 -2.8951
LeftShoulder1  0.202437 1.63389 -2.69244
LeftArm  -20.5682 3.86364 -13.3645
LeftForeArm  -1.25102 1.21077 2.2199
LeftHand  -0.0517747 3.41785 1.45301
RightShoulder  0.0573076 -2.77447 1.06001
RightArm  -7.06065 -4.23854 9.01784
RightForeArm  -6.15991 0.596182 -2.22967
RightHand  -0.296618 5.02479 -3.6045
LeftUpLeg  2.0826 7.9838 5.75168
LeftLeg  2.79791 -1.81241 0.237061
LeftFoot  -1.80995 0.214094 -2.38078
LeftToes  -7.53974e-010 3.3384e-011 -1.25048e-011
34
root  9.47313 40.0973 0.667253 179.963 -86.6398 176.881
RightUpLeg  2.24465 -7.41372 -3.1103
RightLeg  2.27926 3.45628 0.0127561
RightFoot  -2.28966 -0.0976159 1.18285
RightToes  2.91037e-010 0 -3.6325e-017
Spine  7.84466 0.00224806 2.86226
Spine1  -1.16652 0.370183 -1.22185
HEad  -7.29765 -2.99039 -2.92808
LeftShoulder1  0.213321 1.50767 -2.53008
LeftArm  -20.6094 3.9399 -13.5382
LeftForeArm  -1.4586 1.21396 2.24646
LeftHand  -0.0525535 3.667 1.93971
RightShoulder  0.0574126 -2.82529 1.14773
RightArm  -7.03405 -4.30101 8.98816
RightForeArm  -6.65345 0.538438 -2.21152
RightHand  -0.331045 5.61373 -3.80875
LeftUpLeg  2.13017 7.98356 5.73076
LeftLeg  2.7315 -1.772 0.229452
LeftFoot  -1.78779 0.215855 -2.40817
LeftToes  -7.53974e-010 3.3384e-011 -1.25048e-011
35
root  9.46506 40.0977 0.661857 -179.774 -86.698 176.632
RightUpLeg  2.21948 -7.42223 -3.11766
RightLeg  2.32469 3.38809 0.0141464
RightFoot  -2.27957 -0.0928128 1.11577
RightToes  2.91037e-010 0 -3.6325e-017
Spine  7.77762 -0.0628904 2.83923
Spine1  -1.02095 0.303002 -1.22028
HEad  -7.19863 -2.88945 -2.96324
LeftShoulder1  0.194593 1.69507 -2.61484
LeftArm  -20.6625 3.77908 -13.4857
LeftForeArm  -1.23393 1.26987 2.27038
LeftHand  -0.0550323 3.5315 1.59853
RightShoulder  0.0575239 -2.89344 1.4023
RightArm  -7.05534 -4.08266 8.81265
RightForeArm  -6.54713 0.55375 -2.19848
RightHand  -0.320696 5.61785 -3.69791
LeftUpLeg  2.12843 7.92589 5.69708
LeftLeg  2.70365 -1.80299 0.28219
LeftFoot  -1.82379 0.224213 -2.53817
LeftToes  -7.53974e-010 3.3384e-011 -1.25048e-011
36
root  9.4528 40.098 0.651839 179.891 -86.7386 176.98
RightUpLeg  2.23961 -7.40183 -3.08241
RightLeg  2.30904 3.33438 0.0204333
RightFoot  -2.30129 -0.0942723 1.14449
RightToes  2.91037e-010 0 -3.6325e-017
Spine  7.74433 -0.123229 2.71619
Spine1  -0.983962 0.196637 -1.00754
HEad  -7.43892 -2.66989 -2.95392
LeftShoulder1  0.185075 1.80782 -2.79278
LeftArm  -20.4357 3.87409 -13.3235
LeftForeArm  -1.20696 1.23259 2.13723
LeftHand  -0.0533213 3.47504 1.84317
RightShoulder  0.0569407 -2.81773 1.25383
RightArm  -7.23121 -4.13849 8.95758
RightForeArm  -6.42234 0.663842 -2.25619
RightHand  -0.315081 5.49592 -3.67297
LeftUpLeg  2.11406 7.94466 5.73082
LeftLeg  2.72483 -1.84023 0.284045
LeftFoot  -1.84663 0.222012 -2.50394
LeftToes  -7.53974e-010 3.3384e-011 -1.25048e-011
37
root  9.439 40.0983 0.643736 -179.934 -86.676 176.817
RightUpLeg  2.22465 -7.38984 -3.0716
RightLeg  2.34741 3.37636 0.00438562
RightFoot  -2.33518 -0.0930994 1.13085
RightToes  2.91037e-010 0 -3.6325e-017
Spine  7.72427 -0.0914438 2.68024
Spine1  -0.97589 0.219983 -0.96047
HEad  -7.39488 -2.70222 -2.92089
LeftShoulder1  0.185703 1.81193 -2.78402
LeftArm  -20.379 3.90526 -13.3566
LeftForeArm  -1.50765 1.29363 2.12462
LeftHand  -0.0500358 3.23426 1.84073
RightShoulder  0.055897 -2.87853 1.29296
RightArm  -7.25905 -4.1001 8.91853
RightForeArm  -6.32026 0.633754 -2.26692
RightHand  -0.311716 5.73661 -3.57818
LeftUpLeg  2.14865 7.96869 5.74728
LeftLeg  2.69446 -1.80343 0.257447
LeftFoot  -1.80205 0.21575 -2.40654
LeftToes  -7.53974e-010 3.3384e-011 -1.25048e-011
38
root  9.43055 40.0986 0.63363 -179.903 -86.6894 176.821
RightUpLeg  2.20827 -7.38214 -3.05595
RightLeg  2.3416 3.35472 0.00935129
RightFoot  -2.36165 -0.0921831 1.11955
RightToes  2.91037e-010 0 -3.6325e-017
Spine  7.74422 -0.0888506 2.55524
Spine1  -1.0568 0.181375 -0.754839
HEad  -7.39957 -2.72249 -2.96298
LeftShoulder1  0.187743 1.87264 -3.04071
LeftArm  -20.5545 3.863 -13.2143
LeftForeArm  -1.35414 1.21787 2.20834
LeftHand  -0.0482212 3.34069 1.83971
RightShoulder  0.0550519 -2.87267 1.20808
RightArm  -7.28601 -4.10161 8.94987
RightForeArm  -6.29118 0.593174 -2.28302
RightHand  -0.312849 5.74413 -3.60568
LeftUpLeg  2.13099 7.94413 5.74446
LeftLeg  2.6869 -1.78983 0.288815
LeftFoot  -1.83018 0.221411 -2.49459
LeftToes  -7.53974e-010 3.3384e-011 -1.25048e-011
